/* XPM */
static char *_fc3dbd7df874c5ef5517fb778a201eaYHrfGzzxyiW7amQS[] = {
/* columns rows colors chars-per-pixel */
"16 16 184 2 ",
"   c None",
".  c #393003",
"X  c #463A03",
"o  c #443A04",
"O  c #443A05",
"+  c #493F04",
"@  c #493F08",
"#  c #4C4005",
"$  c #534603",
"%  c #554705",
"&  c #564904",
"*  c #564806",
"=  c #594C05",
"-  c #5A4C07",
";  c #594A08",
":  c #635307",
">  c #645406",
",  c #665906",
"<  c #6B5A04",
"1  c #685806",
"2  c #695906",
"3  c #6E5B06",
"4  c #6B5C04",
"5  c #6A5C07",
"6  c #6F5D07",
"7  c #605108",
"8  c #6F5F0C",
"9  c #715D05",
"0  c #736006",
"q  c #756306",
"w  c #766206",
"e  c #786406",
"r  c #776907",
"t  c #7D6807",
"y  c #7F6D04",
"u  c #766208",
"i  c #7F6A08",
"p  c #7F6C09",
"a  c #7D7609",
"s  c #7B6912",
"d  c #806A07",
"f  c #846F07",
"g  c #806D0B",
"h  c #867106",
"j  c #8B7506",
"k  c #8D7804",
"l  c #857008",
"z  c #85710A",
"x  c #85720E",
"c  c #927B06",
"v  c #937C07",
"b  c #907D0B",
"n  c #947E08",
"m  c #947E0B",
"M  c #927C0E",
"N  c #927C0F",
"B  c #867F12",
"V  c #927E10",
"C  c #8A8106",
"Z  c #998108",
"A  c #9E8509",
"S  c #918B0F",
"D  c #9D910D",
"F  c #958113",
"G  c #9C8B1F",
"H  c #B39A0D",
"J  c #A58F1A",
"K  c #AA951A",
"L  c #AFA70A",
"P  c #ACA60E",
"I  c #BDA10C",
"U  c #BCB00C",
"Y  c #BCB70D",
"T  c #ADA915",
"R  c #B4AF13",
"E  c #BDA81E",
"W  c #B7A025",
"Q  c #BFA520",
"!  c #C3BD0C",
"~  c #C5B01B",
"^  c #CAB01E",
"/  c #D2BB17",
"(  c #C4BE38",
")  c #C2BE3C",
"_  c #D5BE33",
"`  c #CBC50F",
"'  c #CBC80D",
"]  c #D1CE09",
"[  c #D7CF0B",
"{  c #CFC311",
"}  c #CBC81D",
"|  c #CFCC1F",
" . c #D6D11E",
".. c #E2D414",
"X. c #E5DC10",
"o. c #EAE20E",
"O. c #F4F20D",
"+. c #FFFE0B",
"@. c #FBFA0E",
"#. c #FBFA0F",
"$. c #FCFB0E",
"%. c #FFFE0C",
"&. c #FFFE0D",
"*. c #FFFE0E",
"=. c #EDEB17",
"-. c #EEEC16",
";. c #E3E01F",
":. c #E5E11F",
">. c #E8E71A",
",. c #E8E61F",
"<. c #EEEC19",
"1. c #EFEE18",
"2. c #EFEE19",
"3. c #EFED1A",
"4. c #E9E81C",
"5. c #EBEA1C",
"6. c #E9E81F",
"7. c #EAE91F",
"8. c #F0EE1B",
"9. c #F7F612",
"0. c #F2F015",
"q. c #F3F115",
"w. c #F5F315",
"e. c #F4F317",
"r. c #F6F414",
"t. c #FAF910",
"y. c #FBFA11",
"u. c #FAFA12",
"i. c #FBFA12",
"p. c #FCFB11",
"a. c #FEFC10",
"s. c #FFFE10",
"d. c #F9F814",
"f. c #FBFB14",
"g. c #FBFB16",
"h. c #FDFC14",
"j. c #F2F01A",
"k. c #F9F718",
"l. c #F8F71B",
"z. c #D0CD25",
"x. c #DAD423",
"c. c #D9D524",
"v. c #DBDA27",
"b. c #DDDB24",
"n. c #DEDB25",
"m. c #DFDE28",
"M. c #DCDC2A",
"N. c #C8C232",
"B. c #CCC936",
"V. c #D1CD30",
"C. c #D9D435",
"Z. c #DBD834",
"A. c #E0DD21",
"S. c #E0DE20",
"D. c #E0DD25",
"F. c #E0DE28",
"G. c #E1DD2F",
"H. c #E2DF2F",
"J. c #E5E223",
"K. c #E5E323",
"L. c #E7E622",
"P. c #E3E227",
"I. c #E5E324",
"U. c #E5E526",
"Y. c #E9E720",
"T. c #EAE920",
"R. c #E0E029",
"E. c #E6E629",
"W. c #E9E62B",
"Q. c #F5E824",
"!. c #FBF723",
"~. c #AD9E4E",
"^. c #E7D14C",
"/. c #E1DD4C",
"(. c #F1DE5C",
"). c #E3D267",
"_. c #E9D764",
"`. c #EFDC6C",
"'. c #F0E278",
"]. c #F9F072",
"[. c #FAF486",
"{. c #FBF290",
"}. c #FDF6BD",
"|. c #FEF6C2",
/* pixels */
"          I.W./.n.7.C.          ",
"      Z.T.i.].'.).{ i.>.N.      ",
"    R.-.&.&.[.|.}.~.!.&.2.U.    ",
"  B.0.+.@.&.{._.`.^...&.&.r.V.  ",
"  7.&.j.l.&.Q.(._ I [ g.i.@.L.  ",
"H.e.&.8.2.&.X.W J U <.e.2.i.i.v.",
"c.p.&.&.o./ H u 8 ~ ! &.2.i.9.I.",
"S.&.&.` n Z E K G x , O.&.k.&.b.",
";.&.h.r h M e ^ V n % P &.&.&.R.",
"D.@.Y = j v v F t g + a &.&.&.7.",
"b.i.L & 2 A t z 3 7 O @ &.&.-.G.",
"  K.C O % z 0 6 g w Q : ] &.7.  ",
"  m.` . 2 d w ; # - 2 N S 0.)   ",
"    E.T 2 h k s O : $ V R K.    ",
"      )  .D y 9 % 5 C } x.      ",
"          m.Y.z.| >.F.          "
};
