/* XPM */
static char *f8f6ee7736f2457dbd9f437314aeb18495R6tgpCBaOd743I[] = {
/* columns rows colors chars-per-pixel */
"32 32 192 2 ",
"   c None",
".  c #372F02",
"X  c #3D3302",
"o  c #413703",
"O  c #453A03",
"+  c #4A3E04",
"@  c #413909",
"#  c #4E4305",
"$  c #4F4609",
"%  c #524404",
"&  c #564904",
"*  c #5B4C05",
"=  c #574B0B",
"-  c #5E5006",
";  c #635306",
":  c #6B5A06",
">  c #63540A",
",  c #66590A",
"<  c #6C5D0A",
"1  c #705F07",
"2  c #605511",
"3  c #6B6007",
"4  c #6E670D",
"5  c #766306",
"6  c #796606",
"7  c #7D6906",
"8  c #74630A",
"9  c #796709",
"0  c #7D6A09",
"q  c #756D0C",
"w  c #7B740C",
"e  c #726610",
"r  c #7C6B11",
"t  c #7F7423",
"y  c #826E06",
"u  c #836D0A",
"i  c #867106",
"p  c #8B7506",
"a  c #85730B",
"s  c #8A750A",
"d  c #8E7909",
"f  c #8A7B08",
"g  c #927C05",
"h  c #927C0A",
"j  c #816E10",
"k  c #817013",
"l  c #817A10",
"z  c #947E10",
"x  c #917F1C",
"c  c #9C8306",
"v  c #9B830A",
"b  c #9A920C",
"n  c #8D8615",
"m  c #998514",
"M  c #978519",
"N  c #938014",
"B  c #A08707",
"V  c #A48A07",
"C  c #A18709",
"Z  c #A28B0D",
"A  c #A98F0A",
"S  c #A4970D",
"D  c #BB9E0A",
"F  c #B5990A",
"G  c #A38C12",
"H  c #A79011",
"J  c #AC9515",
"K  c #AF981D",
"L  c #B49D16",
"P  c #AEAA0A",
"I  c #B9AD0F",
"U  c #B1A711",
"Y  c #BDA51C",
"T  c #B6AB14",
"R  c #BEBA11",
"E  c #BAB510",
"W  c #A08C20",
"Q  c #A69120",
"!  c #A99726",
"~  c #B19E28",
"^  c #AD9B33",
"/  c #BBA62A",
"(  c #ACA731",
")  c #B3A834",
"_  c #BCB835",
"`  c #B9B63B",
"'  c #B9B53B",
"]  c #C2A50C",
"[  c #CDB40B",
"{  c #D0B20E",
"}  c #C1A610",
"|  c #C3AB1C",
" . c #C6AA18",
".. c #C9B11F",
"X. c #D1B110",
"o. c #D8BE16",
"O. c #D3B51B",
"+. c #DEBF19",
"@. c #C4AF2C",
"#. c #CCB521",
"$. c #D7BD25",
"%. c #C8B330",
"&. c #CDB934",
"*. c #D1B931",
"=. c #C5C10E",
"-. c #D8D40F",
";. c #CAC710",
":. c #C3C018",
">. c #CAC613",
",. c #D2CD15",
"<. c #DACD13",
"1. c #D8D514",
"2. c #E1DE0E",
"3. c #E5C615",
"4. c #ECDF19",
"5. c #E1DE15",
"6. c #E8E60D",
"7. c #F3F10D",
"8. c #FFFE0D",
"9. c #E4E216",
"0. c #EEE717",
"q. c #EEEC14",
"w. c #E5E31D",
"e. c #E9E71D",
"r. c #ECEB1B",
"t. c #F2EF16",
"y. c #F0EE1B",
"u. c #F4F415",
"i. c #F8F712",
"p. c #FBFA12",
"a. c #F3F21B",
"s. c #FAF81E",
"d. c #C6C22C",
"f. c #C9C42C",
"g. c #CECA2B",
"h. c #DEC72C",
"j. c #D3CF2C",
"k. c #D7C225",
"l. c #DEDB24",
"z. c #D6D32D",
"x. c #D9D42B",
"c. c #DBDA2C",
"v. c #D9D725",
"b. c #C6C134",
"n. c #CAC735",
"m. c #CECB34",
"M. c #CBC73C",
"N. c #CECA3C",
"B. c #D1CE32",
"V. c #D9C43D",
"C. c #D6D532",
"Z. c #D9D733",
"A. c #DDDA32",
"S. c #D9D638",
"D. c #D2D13E",
"F. c #E0DD22",
"G. c #E3C932",
"H. c #E4DF33",
"J. c #E9D039",
"K. c #E4E322",
"L. c #E9E821",
"P. c #EDEC2B",
"I. c #F6E62D",
"U. c #FEFD21",
"Y. c #E1E034",
"T. c #F9F630",
"R. c #FDF83E",
"E. c #DFCA4A",
"W. c #E1CC47",
"Q. c #F7DE44",
"!. c #EDDA59",
"~. c #F6DF58",
"^. c #FDF857",
"/. c #E1D164",
"(. c #EDDF79",
"). c #FBF464",
"_. c #EEE379",
"`. c #F8EA7C",
"'. c #FDFA73",
"]. c #F7E781",
"[. c #F7E987",
"{. c #FBEE85",
"}. c #FDF88A",
"|. c #F5E796",
" X c #FCF19D",
".X c #FAF296",
"XX c #FCF2A6",
"oX c #FCF2AC",
"OX c #FDF6BD",
"+X c #FDF6BA",
"@X c #FCF8B5",
"#X c #FDF7C1",
/* pixels */
"                        D.B.Z.f.m.S.n.`                         ",
"                  _ c.l.y.s.^.).y.8.8.q.v.n.B.                  ",
"              N.x.w.a.8.T..X`.!.&.[ <.8.i.y.y.P.B.              ",
"            A.K.r.u.i.8._.].XXOX+X|.J U 8.8.i.K.j.C.            ",
"          B.r.a.p.8.8.8.H.+X#X#X+X@X_.> U.8.8.8.u.r.b.          ",
"        b.a.r.8.8.8.8.8.'.@X#X#XOX+XXXK 4.8.8.8.8.p.K.B.        ",
"      Z.a.u.8.8.8.8.8.8.}.#XXX XXX X{.G.#.8.8.8.8.8.8.L.Z.      ",
"    n.x.a.8.8.8.p.8.8.8.).].$.{ O.J.Q.k.F t.8.8.8.8.8.u.z.N.    ",
"    P.a.i.8.u.K.e.a.8.8.^.G./.(.W.I 3.} G p.u.u.r.a.8.8.q.g.    ",
"  S.u.u.8.8.p.L.r.w.p.8.8.I.W.V.*.| ] h I 8.8.a.u.p.a.8.8.l.`   ",
"  N.a.8.8.8.p.K.L.L.8.8.8.t.~.$.Q.G v T p.p.8.u.u.u.8.8.8.e.x.  ",
"  l.r.8.8.8.8.u.r.8.8.p.0.Z G j H 1 e.p.p.p.u.8.p.a.8.p.8.u.x.  ",
") r.a.8.8.8.8.8.8.8.<.o.X.u G 9 u % m I u.8.8.8.8.i.8.8.q.p.K.d.",
"N.L.8.8.8.8.8.8.q.k.| @.<.h : * * x O.G 0 P 8.p.u.p.i.8.8.u.t.m.",
"c.r.p.8.8.8.8.=.< 7 c h @.h.z : + O.W 9 : q 8.8.8.8.u.i.i.8.a.z.",
"z.a.8.8.8.8.8.3 9 ] D f y p *.z s ~ z u - + :.8.8.8.8.u.8.8.u.n.",
"f.8.8.8.8.p.[ 7 y z h j > i Y ! h x ~ d * O , 8.8.8.8.8.8.8.r.z.",
"c.t.8.8.8.6., ; 1 C h d ; s ] @.v r K u & # O t.8.8.8.8.8.8.r.A.",
"g.e.p.8.8.n ; + i g g u s u H %.h 8 J u * X X -.8.8.8.8.8.8.a.d.",
"m.r.t.8.8.3 6 O i V V h d d : ) d , ! 9 & X + S 8.8.8.8.8.8.L._ ",
"  l.L.8.8.8 5 o + C V 1 < 9 1 j 1 : k < @ X o # 8.8.8.8.8.8.l.  ",
"  c.a.p.6.: ; O o p V A h d d Z h > k > @ X o o 7.8.8.8.8.P.n.  ",
"  ( e.L.R ; + o O + h C B i y z Z d < < ^ | u O E 8.8.8.8.P.C.  ",
"    z.i.o.* o o + * ; 1 ; % ; : ; % % i 3. .d + w 8.8.8.a.P.    ",
"    m.K.8.3 X X - 5 7 0 ; ; % = ; , & % v h s = # 7.8.a.g.m.    ",
"      Y.p.1.# . * 7 7 g c ; > 2 X X ; * * ; N i O n 8.a.x.      ",
"        m.p.=.X ; : y i g 7 a # % X 0 # # ; v { - 5.i.b.        ",
"          b.p.,., 5 7 p g p U > - X 7 # # % O a 9.p.B.          ",
"            A.v.6.n > 7 g i L : ; o d % # + l u.L.A.            ",
"              b.P.i.1.b a : G , : o a e b e.r.z.N.              ",
"                  S.m.K.q.9.-.,.;.1.u.a.l.c.'                   ",
"                        ` n.c.z.m.v.m.g.                        "
};
