/* XPM */
static char *dabf02c261a34340960efcca835236b443PYISBONNhMikao[] = {
/* columns rows colors chars-per-pixel */
"64 64 231 2 ",
"   c None",
".  c #352C01",
"X  c #382F02",
"o  c #3C3302",
"O  c #413603",
"+  c #443A03",
"@  c #493D04",
"#  c #453C0B",
"$  c #4D4104",
"%  c #4C420A",
"&  c #524505",
"*  c #564905",
"=  c #5B4D05",
"-  c #51460A",
";  c #544A0C",
":  c #5B4D09",
">  c #5F5006",
",  c #5D510A",
"<  c #574D10",
"1  c #5D5113",
"2  c #635406",
"3  c #6C5B06",
"4  c #63540A",
"5  c #645B0D",
"6  c #6C5B0A",
"7  c #695706",
"8  c #715F06",
"9  c #715E0A",
"0  c #645A12",
"q  c #675A17",
"w  c #746206",
"e  c #7A6606",
"r  c #7D6906",
"t  c #756209",
"y  c #7A660A",
"u  c #7D6A0A",
"i  c #766B0E",
"p  c #776A15",
"a  c #7D7217",
"s  c #6B6510",
"d  c #796C24",
"f  c #7C7022",
"g  c #816D06",
"h  c #826E0A",
"j  c #867105",
"k  c #8A7405",
"l  c #8F7805",
"z  c #85710B",
"x  c #8B750A",
"c  c #8E790A",
"v  c #947C06",
"b  c #937C0A",
"n  c #987E0A",
"m  c #887817",
"M  c #937F11",
"N  c #8B7D28",
"B  c #9B8306",
"V  c #96800B",
"C  c #9B830A",
"Z  c #9C860A",
"A  c #8B8316",
"S  c #898119",
"D  c #958213",
"F  c #9C8A1C",
"G  c #988A14",
"H  c #9D9619",
"J  c #A48A06",
"K  c #A08709",
"L  c #A48B0A",
"P  c #AA8F09",
"I  c #A58A07",
"U  c #AD9207",
"Y  c #AD930B",
"T  c #B1950A",
"R  c #B59A0A",
"E  c #B99D0A",
"W  c #B69905",
"Q  c #A28C18",
"!  c #AB9515",
"~  c #A5931C",
"^  c #A79919",
"/  c #B39D1C",
"(  c #B69D13",
")  c #BEA10B",
"_  c #BEA007",
"`  c #ABA415",
"'  c #ABA31A",
"]  c #BDA414",
"[  c #B2AC13",
"{  c #B7A71B",
"}  c #BCB615",
"|  c #ADA40D",
" . c #8F8125",
".. c #988828",
"X. c #9D8F31",
"o. c #A28E25",
"O. c #AA9723",
"+. c #AB9B32",
"@. c #B09B29",
"#. c #B5A124",
"$. c #BBA524",
"%. c #BCA829",
"&. c #BAA933",
"*. c #BDB734",
"=. c #BEB93B",
"-. c #B9B020",
";. c #CCAD0B",
":. c #C5A709",
">. c #DDBD0E",
",. c #D3B30B",
"<. c #C6AA12",
"1. c #C4AA19",
"2. c #C9AD15",
"3. c #CEB113",
"4. c #CDB31B",
"5. c #C4BB18",
"6. c #D6BB15",
"7. c #DCBE13",
"8. c #D1B61B",
"9. c #D7BA18",
"0. c #CFB20E",
"q. c #E2BF0A",
"w. c #C5AD23",
"e. c #CAB021",
"r. c #C9BC2B",
"t. c #D3BB23",
"y. c #C3BE35",
"u. c #C2BD3C",
"i. c #C9B838",
"p. c #D6BD3A",
"a. c #CBC715",
"s. c #D8CA17",
"d. c #DCD71A",
"f. c #E6C40B",
"g. c #E6C818",
"h. c #E2DF1D",
"j. c #E4D717",
"k. c #F3D119",
"l. c #DFE01D",
"z. c #E9E70F",
"x. c #F5F40E",
"c. c #FFFE0D",
"v. c #FAF70F",
"b. c #EEEC14",
"n. c #E5E31D",
"m. c #E9E61C",
"M. c #ECEB1B",
"N. c #E7E414",
"B. c #F1EE1A",
"V. c #F1EF15",
"C. c #F4F414",
"Z. c #F8F712",
"A. c #FBFA12",
"S. c #F3F21A",
"D. c #FDFB1B",
"F. c #F9F51C",
"G. c #F0EF15",
"H. c #CECB2E",
"J. c #C6C32C",
"K. c #DCC222",
"L. c #D1CE2D",
"P. c #DDC728",
"I. c #D6D426",
"U. c #D9D524",
"Y. c #DDDC24",
"T. c #D5D22C",
"R. c #D9D62C",
"E. c #DCDA2B",
"W. c #C6C333",
"Q. c #CAC634",
"!. c #CDCA34",
"~. c #C5C23B",
"^. c #CAC539",
"/. c #CDCB3A",
"(. c #D1CD32",
"). c #D0CD3A",
"_. c #D9C139",
"`. c #D5D233",
"'. c #DAD732",
"]. c #D2D139",
"[. c #DAD935",
"{. c #E5CA26",
"}. c #E1DE24",
"|. c #E8D828",
" X c #F3D627",
".X c #E5CB37",
"XX c #E9D638",
"oX c #F5DB39",
"OX c #E4E323",
"+X c #E8E622",
"@X c #EBEB22",
"#X c #E3E22A",
"$X c #FAF826",
"%X c #F8E73C",
"&X c #FDF939",
"*X c #F3EC27",
"=X c #C2BC42",
"-X c #CBBA46",
";X c #C6C340",
":X c #D7C348",
">X c #D5CA50",
",X c #E5CD47",
"<X c #E7D346",
"1X c #F5DC47",
"2X c #E9D553",
"3X c #F0DE5C",
"4X c #FBE44C",
"5X c #FBF647",
"6X c #F9E357",
"7X c #D9CB68",
"8X c #E5D66B",
"9X c #F9E666",
"0X c #FAE876",
"qX c #ECE371",
"wX c #DED485",
"eX c #FBEC83",
"rX c #FBED8C",
"tX c #F3E784",
"yX c #FAF586",
"uX c #F9ED97",
"iX c #FCF298",
"pX c #EDE593",
"aX c #FCF4AB",
"sX c #FCF1A4",
"dX c #FDF5B4",
"fX c #FDF6BD",
"gX c #FDF5BB",
"hX c #FDF8B6",
"jX c #FDF7C1",
"kX c #FDF7C4",
"lX c #FDF8C7",
/* pixels */
"                                                      !.Q.'.T.T.`.!./.]./.                                                      ",
"                                            H.>XE.u.=.!.R.Y.Y.}.l.Y.E.L.`.=./.]././.                                            ",
"                                        Q.L.~.!.}.m.A.c.c.$X$XZ.A.c.c.c.c.v.n.Y.H.u.]./.                                        ",
"                                    `./.I.U.A.c.c.A.A.5XiXaXaXrX<XB.c.c.c.c.c.c.C.V.E.T.~.`.                                    ",
"                                !./.E.m.Z.c.c.c.c.$XyXhXaXqX:XK.4.g.s.d.V.A.c.c.b.m.OXM.OX`.].=.                                ",
"                            T.!.!.S.S.A.R.M.c.c.A.yXhXtX<X6XrXqX8Xp.;.) U 5.A.c.c.c.Z.M.@Xl.m.Q.!.~.                            ",
"                          !.Q.}.Z.B.Z.@XC.A.c.c.$XaX0X8XrXkXhXlXkXgXuXp.W V ~ v.c.c.c.c.c.S.+Xm.}.~.Q.                          ",
"                        /.H.C.M.G.+XG.c.c.c.c.c.qXpX6XiXhXfXfXlXdXfXgXdX2Xx 6 { c.c.c.c.c.c.c.v.OXM.T.y.!.                      ",
"                    [.^.T.A.S.@XM.c.c.c.c.c.c.c.B.XXsXaXdXkXlXjXjXgXgXdXsX:X= 0 D.c.c.c.c.c.c.c.Z.m.M.T.!.].                    ",
"                  E.(.I.Z.m.S.c.c.c.c.c.c.c.c.c.c.yXjXjXfXlXjXjXkXjXdXgXaXrXx ; 5Xc.c.c.c.c.c.c.c.A.h.M.Y./.[.                  ",
"                E.^.U.A.#Xn.c.c.c.c.c.c.c.c.c.c.A.hXlXgXdXkXkXfXjXhXgXdXaXsX-X> XXA.c.c.c.c.c.c.c.c.c.M.S.U././.                ",
"              !.Q.#XZ.m.M.c.c.c.c.c.c.c.c.c.c.c.&XkXlXgXjXjXjXgXgXdXdXgXaXiXoXj 9.*Xc.c.c.c.c.c.c.c.c.c.#XM.I.^.                ",
"              ~.R.Z.F.b.v.c.c.c.c.c.c.c.c.c.c.c.5XfXaXlXgXgXdXdXaXdXdXaXrXrX6XP R 4Xc.c.c.c.c.c.c.c.c.c.c.C.B.I.~.              ",
"            Q.`.A.C.M.c.c.c.c.c.c.c.c.c.c.c.c.c.5XkXlXhXaXuXtXrXuXrXuXrXeX9X1X;.R s.A.c.c.c.c.c.c.c.c.c.c.c.@XB.(.!.            ",
"          !.^.Z.B.S.A.c.c.c.c.c.c.c.c.c.c.c.c.c.&XjXgXeX1Xk.>.q.g.4X1X6X6X0XoX) J 3.Z.c.c.c.c.c.c.c.c.c.c.c.A.Y.m.^.L.          ",
"          ^.l.B.S.S.c.c.c.c.c.C.S.C.c.c.c.c.c.c.A.uXrX X) :.<.<.) <.0.g.oX XoXW I ) C.c.c.c.c.c.c.c.c.c.c.c.c.Z.+XOX).          ",
"        u.Q.v.C.n.c.c.c.c.Z.n.Y.S.Z.I.C.c.c.c.c.A.iX0X,..X0XrX0X9X{.L R f.k. XU P J A.c.c.Z.Z.M.M.C.Z.Z.c.c.c.c.m.S.(.^.        ",
"        !.S.Y.D.c.c.c.c.c.S.H.@X@XOXZ.n.c.c.c.c.c.&X4X<.7XwXeX7X-X<X>.v ,.g.9.Y Z G c.c.c.Z.c.c.A.M.OXC.c.c.c.c.A.OXm.'.        ",
"      (.'.A.Z.c.c.c.c.c.A.l.@XS.m.M.B.B.c.c.c.c.c.A.%X9.>X-XoX! +.p. XC W >.R b r 5.c.c.c.G.c.c.A.C.C.C.S.OXc.c.c.n.M.E.H.      ",
"      u.m.OXC.c.c.c.c.c.c.OXm.M.C.B.S.C.Z.c.c.c.c.c.D.g.7X,X>X,X2X.X Xj B ;.k 6 G A.c.c.c.c.S.m.OXA.C.C.c.Z.S.c.c.c.U.OX^.      ",
"    Q.T.c.c.b.c.c.c.c.c.c.M.l.OXM.B.OXm.c.c.c.c.c.c.c.j.6X0Xw. X9X4X,.8 V :.y z C.C.Z.A.c.c.G.m.M.C.S.c.c.c.S.c.c.c.M.M.T.y.    ",
"    !.Y.C.OXx.c.c.c.c.c.c.M.OX@X+X+XE.M.c.c.c.c.c.c.c.s.oX1Xo.e.6Xk.U 9 k x [ C.C.c.c.D.c.c.c.S.Z.Z.m.c.c.c.C.c.c.c.Z.OXY.H.    ",
"    =XA.OXM.c.c.c.c.c.c.c.c.A.m.OX+XC.c.c.c.c.c.c.A.g.W f.Q @ L f.R r : } x.c.Z.C.c.c.Z.Z.Z.C.b.S.C.C.c.c.c.C.c.c.c.c.b.M.~.Q.  ",
"  ).(.A.+XZ.c.c.c.c.c.c.c.c.c.c.c.c.c.c.c.c.c.D.h.P.y 9 h x ..9 8 t 9 4 M.c.c.c.Z.Z.C.Z.c.A.A.c.c.c.@XA.c.c.A.A.c.c.c.B.+X(./.  ",
"  `.n.S.+Xc.c.c.c.c.c.c.c.c.c.c.c.c.c.c.c.F.6.0.9.9.x z T T x P e * @ - z F 5.Z.c.c.c.V.c.c.c.c.c.c.A.C.c.c.c.S.Z.S.c.A.OX}.I.  ",
"  ~.m.C.B.c.c.c.c.c.c.c.c.c.c.c.c.c.c.Z.K.t.g.s.>..Xy L T 4 @ c b t * 7 m L Q D d.D.c.Z.c.c.c.c.c.c.c.M.Z.c.c.c.Z.Z.S.A.M.M.*.  ",
"  =XZ.OXC.c.c.c.c.c.c.c.c.c.c.c.c.c.Z.P.K.9.s.{.{.{.M y y * @ c u 4 = F 2.t.2.4.1.G ` c.C.C.Z.c.c.c.c.Z.M.c.c.c.c.c.c.C.Z.M.~.  ",
"/.].Z.E.Z.c.c.c.c.c.c.c.c.c.c.c.A.[.i.#.~ o.F t.7.g.t.y 9 : @ 2 = @ M t.7..X..* : o % a.c.c.Z.C.C.C.A.Z.S.G.c.c.c.c.S.A.C.n.(.;X",
"T.(.S.G.A.c.c.c.c.c.c.c.c.c.c.a.@ @ h K n n l c #.8.9.3.M 4 0 + # d 1.7.,XN 4 9 w * + [ c.c.c.c.c.c.c.Z.n.B.C.c.C.C.c.c.A.m.T.H.",
"Q.U.C.m.Z.c.c.c.c.c.c.c.c.c.b.- & b 2 x I k k v C L %.t.;.t.o.h 6 q w.{.y h 8 e g 2 + S c.c.c.c.c.c.c.c.c.B.m.A.x.Z.c.c.x.@XI.T.",
"!.Y.S.}.v.c.c.c.c.c.c.c.c.c.{ @ K & R ,.;.:.n h g c K C $.8.o.R 9 b +.8.b y g y r = O + [ c.c.c.c.c.c.c.c.Z.M.m.C.Z.c.c.c.F.Y.`.",
"`.OXM.m.A.c.c.c.c.c.c.c.c.A.5 6 8 9 _ T W L ) t e 8 K v %.9.X.) x z  .1.#.l B e 6 = , @ % Z.c.c.c.c.c.c.c.c.c.c.c.c.c.c.c.OX}.`.",
"T.OXc.c.c.c.c.c.c.c.c.c.c.| 6 k @ K Y C P 9 6 M 3 2 l b @.g.X.( L h o.w.$.h v j * > $ + + [ c.c.c.c.c.c.c.c.c.c.c.c.c.c.c.Y.OXH.",
"!.Y.c.c.c.c.c.c.c.c.c.c.N.4 j 2 - J B b C J 9 : > = h n ( s...( L 9 m N ] c l x > + $ o @ 5 c.c.c.c.c.c.c.c.c.c.c.c.c.c.c.Y.U.!.",
"`.E.c.c.c.c.c.c.c.c.c.b.i = k @ 4 x I l x g k b * # h C O.9.&.] P z x N 4.! h x 3 o > o @ O m.c.c.c.c.c.c.c.c.c.c.c.c.c.Z.S.E.!.",
"W.E.c.I.c.c.c.c.c.c.c.' $ 3 e X : c J v V z z b n 2 t P ( 3.O.1.P c 9 m w.! h g 3 @ * + @ o a.c.c.c.c.c.c.c.c.c.c.c.c.c.c.Y.T.].",
"~.L.c.(.G.c.c.c.c.c.C.O o w 2 X = n n n C v e h j C > g ! 8.&.$.I x p p ..1.h 9 7 $ . $ + o } c.c.c.c.c.c.c.c.c.c.c.c.c.x.B.H.!.",
"  =.Z.m.M.c.c.c.c.c.5.X > j , X > P v J C J x c j v I * m 8.@.%.K b 7 h m L h e 7 $ o o $ o [ c.c.c.c.c.c.c.c.c.c.c.c.c.C.B.=.  ",
"  *.m.l.Y.c.c.c.c.c.A o j r $ . = P I Z n B x c b b I I + n @.~ j x 7 y N ( h 7 2 * o o $ o i c.c.c.c.c.c.c.c.c.c.c.c.c.S.Y.~.  ",
"  E.Y.Z.R.c.c.c.c.c.i $ r w $ X + n P T P I I n j x k z + = o.X.x x h y d #.n = = * o o + o o s.c.c.c.c.c.c.c.c.c.c.c.A.OXOXT.  ",
"  ].(.c.T.A.c.c.c.c.s w j > @ o o j Z E J Y K 9 2 & - 6 6 $ 0 N 8 8 3 7 q / L # & & O + + o o p c.c.c.c.c.c.c.c.c.c.c.S.M.I.!.  ",
"  J.W.A.E.M.c.c.c.c.5 v k 2 + o o : l Z P C = @ 6 v P 3 7 x D u h 7 = 2 q m K O + @ X O + o O 4 c.c.c.c.c.c.c.c.c.c.c.M.Z.~.    ",
"    !.d.A.L.c.c.c.x.; r r 2 $ @ o @ l Z I K Y ] n h : h P 7 u 6 c z * @ # m M o O @ X O o O O & A.c.c.c.c.c.c.c.c.c.c.M.OX!.    ",
"    ~.R.c.l.Z.c.c.} & r > $ @ o o X 6 Z L C B U T z n I Y x x T T n m @ # N b X O # X X o o X & d.c.c.c.c.c.c.c.c.c.M.M.T.^.    ",
"      Q.M.M.#Xc.c.A > e > + O o o X @ y I I K P I I C V n x n R n K ;.u 6 4 4 X 1 ! p.! b O O + H c.c.c.c.c.c.c.c.c.Y.+X=X      ",
"      `.'.c.#XC.c.< $ w : O X O X + $ @ h K n b C n g 8 > 8 x M T K n y 9 7 9 / 9Xo.h <.T = & + % D.c.c.c.c.c.c.c.Z.b.`.].      ",
"        Q.S.Z.Z.c.s $ w @ o X O . = & 2 & u h 6 2 & @ & : 9 h b y h : 7 = * > :.k.g.! g.P 8 * @ $ a.c.c.c.c.c.c.c.}.M.Q.        ",
"        Q.!.c.c.c.} + 2 o X o o o 3 $ w 7 = 3 z 9 2 = 2 * 9 > @ : O + + @ @ @ _ f.>.2.{.E t & + + ' c.c.c.c.c.c.S.M.!.u.        ",
"          ^.OXc.c.A.s O o X o X + 3 8 2 B k > 2 3 w 3 2 & & @ * o O + $ $ & & @ Z W T <.! 6 r + + p c.c.c.c.c.Z.OXOXQ.          ",
"          (.Q.C.c.c.a.o o . o . & 3 w e r Z k V r $ & : * & - 4 i x u e y 7 : @ 7 c 8 6 n m @ @ + O n.c.c.c.c.OXm.^.Q.          ",
"            H.(.c.c.c.G . o o . $ 8 j 3 k l k L B B > O 4 , p ; o O @ o $ 2 > + > 3 7 o 7 #.z 2 o o , z.c.c.m.@X`.Q.            ",
"              ^.R.A.c.x.5 X o . * 8 j 3 r w B k B l g * a , d O o o o X : 2 = O * 2 3 3 t ( Y Y - X o { c.c.b.T.y.              ",
"                ^.E.c.c.z.; o . & 3 r 8 j r l r v B l 7 S t % O $ o o X , 3 : @ @ > 2 2 ,.] 3.E 5 o a A.A.c.Y./.H.              ",
"                E./.Y.A.c.b.% . $ > 8 7 j k k j k B k w Q b : , : O o X 2 w = @ + = * @ : Z >.R > , C.c.c.Y.Q.'.                ",
"                  E.~.#Xc.c.N.% $ > i r r r k k l B l r / R : r t @ + X 3 w > $ @ * = @ o * x C a b.c.c.Y.).H.                  ",
"                    E.W.R.c.A.z.a & 3 r r r r j l B l j $.1.< c w $ + . u c > @ + $ = $ o + : ' x.c.c.R.~.T.                    ",
"                      (.y.`.C.c.c.^ , > 5 w j r v v k g $.] : w w * * . r J 2 + + & = @ X % [ c.c.C.T.~.                        ",
"                          W.(.OXc.c.N.m * 7 3 8 l j k g w.{ , 6 u * & X a Z 2 @ o $ $ + A G.c.A.}.!.!.                          ",
"                            y./.!.S.c.c.d.A * 2 j j g 8 ~ Z , > w & + o y b 4 O o 0 ^ C.c.c.S.(.Q.T.                            ",
"                                =.(.`.@Xc.c.A.} G i 2 : V m , > = * o o s z A H l.c.c.A.M.E.(./.                                ",
"                                    (.u.E.OXZ.c.c.A.N.a.} [ ' ^ ` ^ ` } h.C.c.c.c.A.}.'.^.L.                                    ",
"                                        ~.(.~.H.m.m.Z.c.c.c.c.c.c.c.c.c.c.Z.M.OXT.Q.^.*.                                        ",
"                                            ~./.T.^.;X`.T.E.Y.OXl.#XE.E.T.~.=.R.].                                              ",
"                                                      ;X(.H.!.(.`.L.`.Q.=X                                                      "
};
